# xmcd
#
# Track frame offsets: 
#        150
#        39857
#        47087
#        76664
#        93117
#        115436
#        147250
#        160227
#        185542
#        214059
#        220184
#        245649
#
# Disc length: 3589 seconds
#
# Revision: 1
# Processed by: cddbd v1.5.2PL0 Copyright (c) Steve Scherf et al.
# Submitted via: ExactAudioCopy v1.1
#
DISCID=9f0e030c
DTITLE=Douglas Adams - Per Anhalter durch die Galaxis 2 - CD04
DYEAR=2005
DGENRE=Hörspiel
TTITLE0=Die Bombe und die letzte Frage
TTITLE1=Die Bombe und die letzte Frage
TTITLE2=Die Bombe und die letzte Frage
TTITLE3=Die Bombe und die letzte Frage
TTITLE4=Die verbarrikadierte Wahrheit
TTITLE5=Die verbarrikadierte Wahrheit
TTITLE6=Die verbarrikadierte Wahrheit
TTITLE7=Die verbarrikadierte Wahrheit
TTITLE8=Was ist mit Fenny?
TTITLE9=Was ist mit Fenny?
TTITLE10=Was ist mit Fenny?
TTITLE11=Was ist mit Fenny?
EXTD=
EXTT0=
EXTT1=
EXTT2=
EXTT3=
EXTT4=
EXTT5=
EXTT6=
EXTT7=
EXTT8=
EXTT9=
EXTT10=
EXTT11=
PLAYORDER=
